<svg width="22.000000" height="19.000000" viewBox="0 0 22 19" fill="none" xmlns="http://www.w3.org/2000/svg" xmlns:xlink="http://www.w3.org/1999/xlink">
  <desc>Created with Pixso.</desc>
  <defs/>
  <style>
    
    
      
    
  </style>
  <path id="Vector" d="M19.38 1.59C18.86 1.08 18.25 0.68 17.58 0.41C16.91 0.14 16.19 0 15.47 0C14.74 0 14.02 0.14 13.35 0.41C12.68 0.68 12.07 1.08 11.56 1.59L10.49 2.63L9.43 1.59C8.39 0.57 6.99 0 5.52 0C4.06 0 2.65 0.57 1.61 1.59C0.58 2.6 0 3.99 0 5.43C0 6.87 0.58 8.25 1.61 9.27L2.68 10.31L10.49 18L18.31 10.31L19.38 9.27C19.89 8.76 20.3 8.16 20.57 7.51C20.85 6.85 21 6.14 21 5.43C21 4.71 20.85 4.01 20.57 3.35C20.3 2.69 19.89 2.09 19.38 1.59Z" fill="#FFFFFF" fill-opacity="1.000000" fill-rule="nonzero"/>
  <path id="Vector" d="M17.58 0.41C16.91 0.14 16.19 0 15.47 0C14.74 0 14.02 0.14 13.35 0.41C12.68 0.68 12.07 1.08 11.56 1.59L10.49 2.63L9.43 1.59C8.39 0.57 6.99 0 5.52 0C4.06 0 2.65 0.57 1.61 1.59C0.58 2.6 0 3.99 0 5.43C0 6.87 0.58 8.25 1.61 9.27L2.68 10.31L10.49 18L18.31 10.31L19.38 9.27C19.89 8.76 20.3 8.16 20.57 7.51C20.85 6.85 21 6.14 21 5.43C21 4.71 20.85 4.01 20.57 3.35C20.3 2.69 19.89 2.09 19.38 1.59C18.86 1.08 18.25 0.68 17.58 0.41Z" stroke="#C4C4C4" stroke-opacity="1.000000" stroke-width="1.000000" stroke-linejoin="round"/>
</svg>