<svg width="24.000000" height="24.000000" viewBox="0 0 24 24" fill="none" xmlns="http://www.w3.org/2000/svg" xmlns:xlink="http://www.w3.org/1999/xlink">
	<desc>
			Created with Pixso.
	</desc>
	<defs>
		<clipPath id="clip1_115">
			<rect id="calendar-today" width="24.000000" height="24.000000" fill="white" fill-opacity="0"/>
		</clipPath>
	</defs>
	<g clip-path="url(#clip1_115)">
		<path id="calendar-today" d="M3 6C3 4.34 4.34 3 6 3L18 3C19.65 3 21 4.34 21 6L21 18C21 19.65 19.65 21 18 21L6 21C4.34 21 3 19.65 3 18L3 6ZM5 7L5 18C5 18.55 5.44 19 6 19L18 19C18.55 19 19 18.55 19 18L19 7L5 7ZM17 15C17 16.1 16.1 17 15 17C13.89 17 13 16.1 13 15C13 13.89 13.89 13 15 13C16.1 13 17 13.89 17 15Z" fill="#000000" fill-opacity="0.480000" fill-rule="evenodd"/>
	</g>
</svg>
