<svg width="36.000000" height="35.000000" viewBox="0 0 36 35" fill="none" xmlns="http://www.w3.org/2000/svg" xmlns:xlink="http://www.w3.org/1999/xlink">
	<desc>
			Created with Pixso.
	</desc>
	<defs/>
	<path id="Vector" d="M15.93 0.33C15.16 1.06 12.05 3.98 9.03 6.82C6.01 9.65 3.11 12.38 2.59 12.87C2.07 13.35 1.33 14.05 0.95 14.41C0.57 14.77 0.2 15.12 0.13 15.19L0 15.32L0.9 16.39C1.39 16.98 1.82 17.46 1.84 17.46C1.86 17.46 3.48 15.95 5.45 14.11C15.78 4.44 17.45 2.88 17.47 2.89C17.48 2.9 18.76 4.09 20.3 5.54C21.85 7 25.34 10.28 28.06 12.83C30.78 15.39 33.01 17.48 33.03 17.48C33.04 17.48 33.06 17.47 33.07 17.45C33.08 17.43 33.1 17.43 33.12 17.46C33.18 17.5 33.1 17.59 34.05 16.44C34.47 15.93 34.85 15.48 34.9 15.42L35 15.31L32.71 13.17C31.45 11.99 28.48 9.21 26.12 7C23.76 4.79 20.87 2.09 19.7 1L17.58 -0.99L17.46 -0.99L17.34 -0.99L15.93 0.33Z" fill="#41522E" fill-opacity="1.000000" fill-rule="nonzero"/>
	<path id="Vector" d="M15.6 7C14.6 7.94 11.85 10.52 9.49 12.75L5.19 16.79L5.2 25.12L5.2 33.46L5.26 33.58C5.3 33.64 5.38 33.75 5.44 33.8C5.67 34.01 5.37 34 9.71 34L13.61 34L13.62 30.3C13.63 26.63 13.63 26.61 13.68 26.48C13.75 26.31 13.89 26.17 14.05 26.09C14.17 26.03 14.19 26.03 17.4 26.02C20.96 26.01 20.81 26.01 21.01 26.19C21.15 26.33 21.23 26.48 21.27 26.67C21.29 26.78 21.3 27.98 21.3 30.42L21.3 34L25.35 33.99L29.41 33.98L29.5 33.9C29.54 33.85 29.62 33.71 29.67 33.59L29.76 33.37L29.76 25.07L29.77 16.77L23.64 11.04C20.17 7.79 17.5 5.3 17.46 5.3C17.43 5.3 16.79 5.88 15.6 7Z" fill="#41522E" fill-opacity="1.000000" fill-rule="nonzero"/>
</svg>
