<svg width="17.000000" height="16.000000" viewBox="0 0 17 16" fill="none" xmlns="http://www.w3.org/2000/svg" xmlns:xlink="http://www.w3.org/1999/xlink">
	<desc>
			Created with Pixso.
	</desc>
	<defs/>
	<path id="Vector" d="M7.65 1.01C7.19 2.13 6.62 3.48 6.39 4.03C6.17 4.57 5.98 5.02 5.98 5.02C5.98 5.02 5.54 5.06 5.02 5.1C4.49 5.14 3.54 5.21 2.89 5.26C2.25 5.31 1.37 5.38 0.93 5.41C0.5 5.44 0.11 5.47 0.07 5.48L0 5.48L0.06 5.55C0.1 5.59 0.54 6 1.02 6.46C1.51 6.92 2.16 7.52 2.45 7.79C4.23 9.46 4.64 9.85 4.66 9.86C4.68 9.88 4.76 9.52 3.9 13.2C3.54 14.73 3.25 16 3.25 16C3.25 16 4.47 15.26 5.96 14.35C7.44 13.43 8.67 12.69 8.68 12.69C8.69 12.69 9.24 13.05 9.89 13.48C10.55 13.91 11.53 14.55 12.07 14.9C12.61 15.25 13.21 15.64 13.4 15.77C13.59 15.89 13.76 16 13.76 16C13.76 16 13.76 15.97 13.76 15.94C13.75 15.89 13.18 13.14 12.67 10.67C12.55 10.08 12.44 9.58 12.44 9.57C12.44 9.55 13.36 8.74 16.65 5.81C17.02 5.49 17.02 5.49 16.98 5.48C16.95 5.47 15.56 5.33 13.88 5.15C12.2 4.97 10.81 4.82 10.79 4.82C10.77 4.81 10.71 4.65 10.51 4.16C10.38 3.8 9.93 2.66 9.53 1.63C9.13 0.59 8.74 -0.42 8.66 -0.62C8.58 -0.83 8.52 -1 8.51 -1C8.51 -1.01 8.12 -0.1 7.65 1.01Z" fill="#6C6845" fill-opacity="1.000000" fill-rule="nonzero"/>
	<path id="Vector" d="M7.65 1.01C7.19 2.13 6.62 3.48 6.39 4.03C6.17 4.57 5.98 5.02 5.98 5.02C5.98 5.02 5.54 5.06 5.02 5.1C4.49 5.14 3.54 5.21 2.89 5.26C2.25 5.31 1.37 5.38 0.93 5.41C0.5 5.44 0.11 5.47 0.07 5.48L0 5.48L0.06 5.55C0.1 5.59 0.54 6 1.02 6.46C1.51 6.92 2.16 7.52 2.45 7.79C4.23 9.46 4.64 9.85 4.66 9.86C4.68 9.88 4.76 9.52 3.9 13.2C3.54 14.73 3.25 16 3.25 16C3.25 16 4.47 15.26 5.96 14.35C7.44 13.43 8.67 12.69 8.68 12.69C8.69 12.69 9.24 13.05 9.89 13.48C10.55 13.91 11.53 14.55 12.07 14.9C12.61 15.25 13.21 15.64 13.4 15.77C13.59 15.89 13.76 16 13.76 16C13.76 16 13.76 15.97 13.76 15.94C13.75 15.89 13.18 13.14 12.67 10.67C12.55 10.08 12.44 9.58 12.44 9.57C12.44 9.55 13.36 8.74 16.65 5.81C17.02 5.49 17.02 5.49 16.98 5.48C16.95 5.47 15.56 5.33 13.88 5.15C12.2 4.97 10.81 4.82 10.79 4.82C10.77 4.81 10.71 4.65 10.51 4.16C10.38 3.8 9.93 2.66 9.53 1.63C9.13 0.59 8.74 -0.42 8.66 -0.62C8.58 -0.83 8.52 -1 8.51 -1C8.51 -1.01 8.12 -0.1 7.65 1.01Z" fill="#FFFFFF" fill-opacity="0.600000" fill-rule="nonzero"/>
</svg>
